<svg width="26" height="25" viewBox="0 0 26 25" fill="none" xmlns="http://www.w3.org/2000/svg">
<path d="M22.6174 24.6088L14.6515 16.643C13.9403 17.2119 13.1223 17.6624 12.1977 17.9943C11.2731 18.3262 10.2892 18.4922 9.24609 18.4922C6.66192 18.4922 4.47511 17.5974 2.68563 15.808C0.895211 14.0175 0 11.8303 0 9.24609C0 6.66192 0.895211 4.47463 2.68563 2.68421C4.47511 0.894737 6.66192 0 9.24609 0C11.8303 0 14.0175 0.894737 15.808 2.68421C17.5974 4.47463 18.4922 6.66192 18.4922 9.24609C18.4922 10.2892 18.3262 11.2731 17.9943 12.1977C17.6624 13.1223 17.2119 13.9403 16.643 14.6515L24.6444 22.6529C24.9052 22.9137 25.0356 23.2338 25.0356 23.6131C25.0356 23.9924 24.8933 24.3243 24.6088 24.6088C24.348 24.8696 24.0161 25 23.6131 25C23.2101 25 22.8781 24.8696 22.6174 24.6088ZM9.24609 15.6472C11.0242 15.6472 12.5358 15.0251 13.7809 13.7809C15.0251 12.5358 15.6472 11.0242 15.6472 9.24609C15.6472 7.46799 15.0251 5.95638 13.7809 4.71124C12.5358 3.46705 11.0242 2.84495 9.24609 2.84495C7.46799 2.84495 5.95638 3.46705 4.71124 4.71124C3.46705 5.95638 2.84495 7.46799 2.84495 9.24609C2.84495 11.0242 3.46705 12.5358 4.71124 13.7809C5.95638 15.0251 7.46799 15.6472 9.24609 15.6472Z" fill="#756CDF"/>
</svg>
